<?xml version="1.0" encoding="iso-8859-1"?>
<!-- Generator: Adobe Illustrator 19.0.0, SVG Export Plug-In . SVG Version: 6.00 Build 0)  -->
<svg version="1.1" id="Layer_1" xmlns="http://www.w3.org/2000/svg" xmlns:xlink="http://www.w3.org/1999/xlink" x="0px" y="0px"
	 viewBox="0 0 509.287 509.287" style="enable-background:new 0 0 509.287 509.287;" xml:space="preserve">
<circle style="fill:#4F5565;" cx="254.644" cy="254.644" r="254.644"/>
<rect x="97.992" y="72.901" style="fill:#FCFCFD;" width="313.303" height="363.147"/>
<g>
	<rect x="134.273" y="189.881" style="fill:#F1F3F7;" width="241.081" height="12.207"/>
	<rect x="134.273" y="217.346" style="fill:#F1F3F7;" width="241.081" height="12.207"/>
	<rect x="134.273" y="244.811" style="fill:#F1F3F7;" width="241.081" height="12.207"/>
</g>
<g>
	<rect x="134.273" y="273.293" style="fill:#6EB1E1;" width="106.808" height="127.83"/>
	<rect x="265.494" y="273.293" style="fill:#6EB1E1;" width="62.389" height="10.511"/>
</g>
<g>
	<rect x="265.494" y="302.792" style="fill:#F1F3F7;" width="109.86" height="10.511"/>
	<rect x="265.494" y="332.291" style="fill:#F1F3F7;" width="109.86" height="10.511"/>
	<rect x="265.494" y="361.452" style="fill:#F1F3F7;" width="109.86" height="10.511"/>
	<rect x="265.494" y="390.951" style="fill:#F1F3F7;" width="109.86" height="10.511"/>
</g>
<g>
	<path style="fill:#4F5565;" d="M348.567,134.273c-0.339,0-0.678,0-1.017,0c-4.069,0-7.121-3.391-7.121-7.121
		c0-4.069,3.391-7.121,7.121-7.121c2.034,0,4.069,0.678,5.425,2.374c1.695,2.034,4.747,2.034,6.781,0.339
		c2.034-1.695,2.034-4.747,0.339-6.781c-3.052-3.391-7.799-5.425-12.207-5.425c-9.494,0-16.954,7.46-16.954,16.954
		c0,9.155,7.121,16.275,15.936,16.954c0.339,0,0.678,0,1.017,0c4.069,0,7.121,3.391,7.121,7.121c0,4.069-3.391,7.121-7.121,7.121
		c-2.034,0-4.069-0.678-5.425-2.374c-1.695-2.034-4.747-2.034-6.781-0.339s-2.034,4.747-0.339,6.781
		c3.052,3.391,7.799,5.425,12.207,5.425c9.494,0,16.954-7.46,16.954-16.954C364.842,142.072,357.722,134.612,348.567,134.273z"/>
	<path style="fill:#4F5565;" d="M231.248,144.106c2.713,0,4.747-2.034,4.747-4.747c0-2.713-2.034-4.747-4.747-4.747h-14.241v-14.58
		h14.241c2.713,0,4.747-2.034,4.747-4.747c0-2.713-2.034-4.747-4.747-4.747H212.26c-2.713,0-4.747,2.034-4.747,4.747v48.487
		c0,2.713,2.034,4.747,4.747,4.747h18.988c2.713,0,4.747-2.034,4.747-4.747c0-2.713-2.034-4.747-4.747-4.747h-14.241v-14.58h14.241
		V144.106z"/>
	<path style="fill:#4F5565;" d="M178.691,110.199c-2.713,0-4.747,2.034-4.747,4.747v30.856l-20.005-33.568
		c-1.017-2.034-3.391-2.713-5.425-2.034c-2.034,0.678-3.391,2.374-3.391,4.747v48.487c0,2.713,2.034,4.747,4.747,4.747
		c2.713,0,4.747-2.034,4.747-4.747v-30.856l20.005,33.568c1.017,1.356,2.374,2.374,4.069,2.374c0.339,0,1.017,0,1.356-0.339
		c2.034-0.678,3.391-2.374,3.391-4.747v-48.487C183.438,112.233,181.065,110.199,178.691,110.199z"/>
	<path style="fill:#4F5565;" d="M311.947,110.199c-2.713-0.678-5.086,0.678-6.103,3.391l-8.138,30.856l-8.477-31.195
		c-0.339-1.695-1.695-2.713-3.391-3.391c-2.713-0.678-5.086,0.678-6.103,3.391l-8.138,30.856l-8.138-30.177
		c-0.678-2.713-3.391-4.069-6.103-3.391c-2.713,0.678-4.069,3.391-3.391,6.103l13.224,48.148c0.678,2.034,2.374,3.73,4.747,3.73
		c2.034,0,4.069-1.356,4.747-3.73l8.138-30.856l8.138,30.856c0.678,2.034,2.374,3.73,4.747,3.73c2.034,0,4.069-1.356,4.747-3.73
		l12.885-48.487C316.016,113.589,314.66,110.877,311.947,110.199z"/>
</g>
<g>
</g>
<g>
</g>
<g>
</g>
<g>
</g>
<g>
</g>
<g>
</g>
<g>
</g>
<g>
</g>
<g>
</g>
<g>
</g>
<g>
</g>
<g>
</g>
<g>
</g>
<g>
</g>
<g>
</g>
</svg>
